<?xml version="1.0" encoding="UTF-8"?>
<svg width="14px" height="12px" viewBox="0 0 14 12" version="1.1" xmlns="http://www.w3.org/2000/svg" xmlns:xlink="http://www.w3.org/1999/xlink">
    <!-- Generator: Sketch 61.2 (89653) - https://sketch.com -->
    <title>Shape</title>
    <desc>Created with Sketch.</desc>
    <g id="Page-1" stroke="none" stroke-width="1" fill="none" fill-rule="evenodd">
        <g id="Artboard-4" transform="translate(-30.000000, -383.000000)" fill="#757575" fill-rule="nonzero">
            <g id="Group-5" transform="translate(20.000000, 150.000000)">
                <path d="M17.3329564,245 L10.6662897,245 C10.4009564,245 10.1609564,244.842667 10.0556231,244.6 C9.94962305,244.356667 9.99762305,244.074 10.1782897,243.88 L11.7156231,242.224 C11.0269564,241.261333 10.6662897,240.156667 10.6662897,239 C10.6662897,235.691333 13.6569564,233 17.3329564,233 C21.0089564,233 23.9996231,235.691333 23.9996231,239 C23.9996231,242.308667 21.0089564,245 17.3329564,245 Z M12.1949564,243.666667 L17.3329564,243.666667 C20.2736231,243.666667 22.6662897,241.573333 22.6662897,239 C22.6662897,236.427333 20.2736231,234.333333 17.3329564,234.333333 C14.3922897,234.333333 11.9996231,236.427333 11.9996231,239 C11.9996231,240.024667 12.3782897,241 13.0942897,241.821333 C13.3182897,242.078667 13.3122897,242.463333 13.0802897,242.713333 L12.1949564,243.666667 Z" id="Shape"></path>
            </g>
        </g>
    </g>
</svg>