<?xml version="1.0" encoding="UTF-8"?>
<svg width="4px" height="16px" viewBox="0 0 4 16" version="1.1" xmlns="http://www.w3.org/2000/svg" xmlns:xlink="http://www.w3.org/1999/xlink">
    <!-- Generator: Sketch 61.2 (89653) - https://sketch.com -->
    <title>Shape</title>
    <desc>Created with Sketch.</desc>
    <g id="Page-1" stroke="none" stroke-width="1" fill="none" fill-rule="evenodd">
        <g id="Artboard-4" transform="translate(-341.000000, -534.000000)" fill="#747474">
            <g id="Group-5" transform="translate(20.000000, 423.000000)">
                <path d="M323,115 C324.1,115 325,114.1 325,113 C325,111.9 324.1,111 323,111 C321.9,111 321,111.9 321,113 C321,114.1 321.9,115 323,115 L323,115 Z M323,117 C321.9,117 321,117.9 321,119 C321,120.1 321.9,121 323,121 C324.1,121 325,120.1 325,119 C325,117.9 324.1,117 323,117 L323,117 Z M323,123 C321.9,123 321,123.9 321,125 C321,126.1 321.9,127 323,127 C324.1,127 325,126.1 325,125 C325,123.9 324.1,123 323,123 L323,123 Z" id="Shape"></path>
            </g>
        </g>
    </g>
</svg>