<?xml version="1.0" encoding="UTF-8"?>
<svg width="14px" height="14px" viewBox="0 0 14 14" version="1.1" xmlns="http://www.w3.org/2000/svg" xmlns:xlink="http://www.w3.org/1999/xlink">
    <!-- Generator: Sketch 61.2 (89653) - https://sketch.com -->
    <title>Shape</title>
    <desc>Created with Sketch.</desc>
    <g id="Page-1" stroke="none" stroke-width="1" fill="none" fill-rule="evenodd">
        <g id="Artboard-4" transform="translate(-147.000000, -383.000000)" fill="#757575" fill-rule="nonzero">
            <g id="Group-5" transform="translate(20.000000, 150.000000)">
                <path d="M137.666667,241 C136.866667,241 136.156,241.360667 135.666667,241.920667 L132.272,240.224 C132.311333,240.044667 132.333333,239.858667 132.333333,239.666667 C132.333333,239.474667 132.311333,239.289333 132.272,239.108667 L135.666667,237.412 C136.156,237.972 136.866667,238.333333 137.666667,238.333333 C139.136667,238.333333 140.333333,237.136667 140.333333,235.666667 C140.333333,234.196 139.136667,233 137.666667,233 C136.196667,233 135,234.196 135,235.666667 C135,235.858 135.022,236.044 135.061333,236.224 L131.666667,237.920667 C131.177333,237.361333 130.466667,237 129.666667,237 C128.196667,237 127,238.196 127,239.666667 C127,241.136667 128.196667,242.333333 129.666667,242.333333 C130.466667,242.333333 131.177333,241.971333 131.666667,241.411333 L135.061333,243.108667 C135.022,243.289333 135,243.475333 135,243.666667 C135,245.136667 136.196667,246.333333 137.666667,246.333333 C139.136667,246.333333 140.333333,245.136667 140.333333,243.666667 C140.333333,242.196 139.136667,241 137.666667,241 Z M137.666667,234.333333 C138.402667,234.333333 139,234.93 139,235.666667 C139,236.402667 138.402667,237 137.666667,237 C136.930667,237 136.333333,236.402667 136.333333,235.666667 C136.333333,234.93 136.930667,234.333333 137.666667,234.333333 Z M129.666667,241 C128.930667,241 128.333333,240.402667 128.333333,239.666667 C128.333333,238.93 128.930667,238.333333 129.666667,238.333333 C130.402667,238.333333 131,238.93 131,239.666667 C131,240.402667 130.402667,241 129.666667,241 Z M137.666667,245 C136.930667,245 136.333333,244.402667 136.333333,243.666667 C136.333333,242.93 136.930667,242.333333 137.666667,242.333333 C138.402667,242.333333 139,242.93 139,243.666667 C139,244.402667 138.402667,245 137.666667,245 Z" id="Shape"></path>
            </g>
        </g>
    </g>
</svg>