<?xml version="1.0" encoding="UTF-8"?>
<svg width="18px" height="16px" viewBox="0 0 18 16" version="1.1" xmlns="http://www.w3.org/2000/svg" xmlns:xlink="http://www.w3.org/1999/xlink">
    <!-- Generator: Sketch 61.2 (89653) - https://sketch.com -->
    <title>Shape</title>
    <desc>Created with Sketch.</desc>
    <g id="Page-1" stroke="none" stroke-width="1" fill="none" fill-rule="evenodd">
        <g id="Artboard-4" transform="translate(-311.000000, -534.000000)" fill="#747474" fill-rule="nonzero">
            <g id="Group-5" transform="translate(20.000000, 423.000000)">
                <path d="M300,127.001 C299.816,127.001 299.633,126.95 299.471,126.849 C299.124,126.633 291,121.492 291,116.001 C291,113.244 293.243,111.001 296,111.001 C297.594,111.001 299.07,111.838 300,113.081 C300.93,111.838 302.406,111.001 304,111.001 C306.757,111.001 309,113.244 309,116.001 C309,121.492 300.876,126.633 300.529,126.849 C300.367,126.95 300.184,127.001 300,127.001 Z M296,113.001 C294.346,113.001 293,114.347 293,116.001 C293,119.364 297.643,123.208 300,124.807 C302.357,123.208 307,119.365 307,116.001 C307,114.347 305.654,113.001 304,113.001 C302.311,113.001 301,114.613 301,116.001 C301,116.553 300.553,117.001 300,117.001 C299.447,117.001 299,116.553 299,116.001 C299,114.613 297.689,113.001 296,113.001 Z" id="Shape"></path>
            </g>
        </g>
    </g>
</svg>